<svg xmlns="http://www.w3.org/2000/svg" viewBox="0 0 128 128" width="128" height="128">
  <defs>
    <linearGradient id="shieldGradient" x1="0%" y1="0%" x2="0%" y2="100%">
      <stop offset="0%" style="stop-color:#4f46e5;stop-opacity:1" />
      <stop offset="100%" style="stop-color:#7c3aed;stop-opacity:1" />
    </linearGradient>
    <linearGradient id="glassGradient" x1="0%" y1="0%" x2="0%" y2="100%">
      <stop offset="0%" style="stop-color:#06b6d4;stop-opacity:1" />
      <stop offset="100%" style="stop-color:#0891b2;stop-opacity:1" />
    </linearGradient>
    <filter id="shadow" x="-50%" y="-50%" width="200%" height="200%">
      <feDropShadow dx="2" dy="4" stdDeviation="3" flood-color="#000000" flood-opacity="0.3"/>
    </filter>
  </defs>
  
  <!-- Background circle for contrast -->
  <circle cx="64" cy="64" r="58" fill="#ffffff" stroke="#e5e7eb" stroke-width="2" filter="url(#shadow)"/>
  
  <!-- Main shield -->
  <path d="M64 16 L44 26 L44 52 Q44 70 64 84 Q84 70 84 52 L84 26 Z" 
        fill="url(#shieldGradient)" 
        stroke="#3730a3" 
        stroke-width="2" 
        filter="url(#shadow)"/>
  
  <!-- Shield highlight -->
  <path d="M64 20 L48 28 L48 50 Q48 62 58 72" 
        fill="none" 
        stroke="#8b5cf6" 
        stroke-width="1.5" 
        opacity="0.6"/>
  
  <!-- Security check mark inside shield -->
  <path d="M54 50 L60 56 L74 42" 
        fill="none" 
        stroke="#ffffff" 
        stroke-width="3" 
        stroke-linecap="round" 
        stroke-linejoin="round"/>
  
  <!-- Magnifying glass -->
  <g transform="translate(75, 75)">
    <!-- Glass circle -->
    <circle cx="0" cy="0" r="12" 
            fill="url(#glassGradient)" 
            stroke="#0e7490" 
            stroke-width="2"/>
    
    <!-- Glass inner highlight -->
    <circle cx="-3" cy="-3" r="4" 
            fill="#ffffff" 
            opacity="0.4"/>
    
    <!-- Handle -->
    <line x1="8" y1="8" x2="18" y2="18" 
          stroke="#0e7490" 
          stroke-width="4" 
          stroke-linecap="round"/>
    
    <!-- Scan lines in glass -->
    <path d="M-6 -2 L6 -2 M-6 2 L6 2" 
          stroke="#ffffff" 
          stroke-width="1" 
          opacity="0.7"/>
  </g>
  
  <!-- Scan effect rays -->
  <g opacity="0.3">
    <path d="M64 84 L58 94 L70 94 Z" fill="#4f46e5"/>
    <path d="M84 52 L94 46 L94 58 Z" fill="#4f46e5"/>
    <path d="M44 52 L34 46 L34 58 Z" fill="#4f46e5"/>
  </g>
  
  <!-- Small security dots -->
  <circle cx="32" cy="32" r="2" fill="#10b981" opacity="0.8"/>
  <circle cx="96" cy="32" r="2" fill="#10b981" opacity="0.8"/>
  <circle cx="32" cy="96" r="2" fill="#f59e0b" opacity="0.8"/>
</svg> 