<svg xmlns="http://www.w3.org/2000/svg" viewBox="0 0 48 48" width="48" height="48">
  <defs>
    <linearGradient id="shieldGrad48" x1="0%" y1="0%" x2="0%" y2="100%">
      <stop offset="0%" style="stop-color:#4f46e5;stop-opacity:1" />
      <stop offset="100%" style="stop-color:#7c3aed;stop-opacity:1" />
    </linearGradient>
    <linearGradient id="glassGrad48" x1="0%" y1="0%" x2="0%" y2="100%">
      <stop offset="0%" style="stop-color:#06b6d4;stop-opacity:1" />
      <stop offset="100%" style="stop-color:#0891b2;stop-opacity:1" />
    </linearGradient>
  </defs>
  
  <!-- Background circle -->
  <circle cx="24" cy="24" r="22" fill="#ffffff" stroke="#e5e7eb" stroke-width="1"/>
  
  <!-- Main shield -->
  <path d="M24 6 L16 10 L16 20 Q16 26 24 32 Q32 26 32 20 L32 10 Z" 
        fill="url(#shieldGrad48)" 
        stroke="#3730a3" 
        stroke-width="1"/>
  
  <!-- Shield highlight -->
  <path d="M24 8 L18 11 L18 19 Q18 23 22 26" 
        fill="none" 
        stroke="#8b5cf6" 
        stroke-width="0.8" 
        opacity="0.6"/>
  
  <!-- Check mark -->
  <path d="M20 19 L22.5 21.5 L28 16" 
        fill="none" 
        stroke="#ffffff" 
        stroke-width="2" 
        stroke-linecap="round" 
        stroke-linejoin="round"/>
  
  <!-- Magnifying glass -->
  <g transform="translate(28, 28)">
    <circle cx="0" cy="0" r="5" 
            fill="url(#glassGrad48)" 
            stroke="#0e7490" 
            stroke-width="1"/>
    <circle cx="-1.5" cy="-1.5" r="1.5" 
            fill="#ffffff" 
            opacity="0.4"/>
    <line x1="3.5" y1="3.5" x2="7" y2="7" 
          stroke="#0e7490" 
          stroke-width="2" 
          stroke-linecap="round"/>
    <!-- Scan lines -->
    <path d="M-2.5 -1 L2.5 -1 M-2.5 1 L2.5 1" 
          stroke="#ffffff" 
          stroke-width="0.5" 
          opacity="0.7"/>
  </g>
  
  <!-- Small scan indicators -->
  <circle cx="12" cy="12" r="1" fill="#10b981" opacity="0.8"/>
  <circle cx="36" cy="12" r="1" fill="#10b981" opacity="0.8"/>
  <circle cx="12" cy="36" r="1" fill="#f59e0b" opacity="0.8"/>
</svg> 